<svg xmlns="http://www.w3.org/2000/svg" viewBox="0 0 577.99 377.27"><defs><style>.cls-1{fill:#1d1d1b;}.cls-2{fill:#f6f6f6;}.cls-3{fill:none;stroke:#e94e1b;stroke-miterlimit:10;}</style></defs><g id="Ebene_2" data-name="Ebene 2"><g id="Ebene_1-2" data-name="Ebene 1"><rect class="cls-1" x="36.19" y="104.08" width="503.71" height="192.42"/><path class="cls-1" d="M125.17,44.76h1.92l-18.75,56.47h-1.8L86.43,47.36,66.22,101.23H64.41L45.66,44.76h1.92L65.31,98.63,85.42,44.76h1.92l20.1,53.87Z" transform="translate(0 -8.66)"/><path class="cls-1" d="M140.87,33.69a2.46,2.46,0,0,1-1.81-.68,2.77,2.77,0,0,1,0-3.61,2.48,2.48,0,0,1,4.29,1.81,2.43,2.43,0,0,1-.67,1.8A2.46,2.46,0,0,1,140.87,33.69Zm.9,11.07v56.47H140V44.76Z" transform="translate(0 -8.66)"/><path class="cls-1" d="M161,101.23V44.76h1.81V59.44a24.42,24.42,0,0,1,6.78-11.24,16.48,16.48,0,0,1,11.74-4.57,14.1,14.1,0,0,1,5,.73,7.77,7.77,0,0,1,3,2l-1,1.36a8.83,8.83,0,0,0-2.59-1.81,11.79,11.79,0,0,0-4.63-.68,14.67,14.67,0,0,0-9.38,3.33,22.66,22.66,0,0,0-6.55,8.64,27.14,27.14,0,0,0-2.37,11.18v32.87Z" transform="translate(0 -8.66)"/><path class="cls-1" d="M299.33,44.76h1.92L282.5,101.23h-1.81l-20.1-53.87-20.22,53.87h-1.81L219.82,44.76h1.92l17.73,53.87,20.1-53.87h1.92l20.1,53.87Z" transform="translate(0 -8.66)"/><path class="cls-1" d="M335.69,43.63a26.55,26.55,0,0,1,13.73,3.5,23.92,23.92,0,0,1,9.26,10.11A34.63,34.63,0,0,1,362,73a34.67,34.67,0,0,1-3.33,15.76,23.92,23.92,0,0,1-9.26,10.11,28.66,28.66,0,0,1-27.45,0,24.31,24.31,0,0,1-9.32-10.11A34.28,34.28,0,0,1,309.27,73a34.24,34.24,0,0,1,3.38-15.75A24.31,24.31,0,0,1,322,47.13,26.52,26.52,0,0,1,335.69,43.63Zm0,1.58a24.26,24.26,0,0,0-12.76,3.33,23,23,0,0,0-8.69,9.55A32.48,32.48,0,0,0,311.07,73a32.6,32.6,0,0,0,3.17,14.86,22.87,22.87,0,0,0,8.69,9.6,26.13,26.13,0,0,0,25.53,0,22.57,22.57,0,0,0,8.64-9.6A33.13,33.13,0,0,0,360.2,73a33,33,0,0,0-3.1-14.9,22.67,22.67,0,0,0-8.64-9.55A24.29,24.29,0,0,0,335.69,45.21Z" transform="translate(0 -8.66)"/><path class="cls-1" d="M378.72,18.78V89.14c0,4.15.68,7.12,2,8.93s3.42,2.71,6.21,2.71a17.07,17.07,0,0,0,3.84-.34,13.61,13.61,0,0,0,2.71-1V101a12.91,12.91,0,0,1-2.71,1,15.78,15.78,0,0,1-3.84.4c-3.32,0-5.82-1.06-7.51-3.16s-2.54-5.46-2.54-10.06V18.78Z" transform="translate(0 -8.66)"/><path class="cls-1" d="M405.49,18.78V89.14c0,4.15.68,7.12,2,8.93s3.43,2.71,6.22,2.71a17.13,17.13,0,0,0,3.84-.34,13.84,13.84,0,0,0,2.71-1V101a13.11,13.11,0,0,1-2.71,1,15.78,15.78,0,0,1-3.84.4c-3.32,0-5.82-1.06-7.51-3.16s-2.55-5.46-2.55-10.06V18.78Z" transform="translate(0 -8.66)"/><path class="cls-1" d="M452.25,102.36a25.84,25.84,0,0,1-13.38-3.5,24.64,24.64,0,0,1-9.38-10.11A33.78,33.78,0,0,1,426.05,73a34.05,34.05,0,0,1,3.39-15.81,25,25,0,0,1,9.09-10,24,24,0,0,1,12.82-3.5A23.21,23.21,0,0,1,464.11,47a22.06,22.06,0,0,1,8.19,9.65,35.63,35.63,0,0,1,2.88,15v.79H427V70.74h47.44l-.79.67q-.12-11.62-5.82-18.91t-16.43-7.29a22.16,22.16,0,0,0-11.92,3.33A23.1,23.1,0,0,0,431,58.09a33,33,0,0,0-3.1,14.9A32.5,32.5,0,0,0,431,87.9a23.1,23.1,0,0,0,8.69,9.55,25.08,25.08,0,0,0,25.08-.06,21.46,21.46,0,0,0,8.47-9.26l1.47.79a21.23,21.23,0,0,1-5.31,7.17,24.55,24.55,0,0,1-7.79,4.63A26.78,26.78,0,0,1,452.25,102.36Z" transform="translate(0 -8.66)"/><path class="cls-1" d="M490.2,101.23V44.76H492V60.57l-.12-.34a21.16,21.16,0,0,1,4.52-8.53,22.68,22.68,0,0,1,8.13-5.92,26.86,26.86,0,0,1,11-2.15,24.19,24.19,0,0,1,11.24,2.43A17.15,17.15,0,0,1,534,53a22.26,22.26,0,0,1,2.55,11.07v37.16H534.7V64.3q0-9-5.25-14.06t-14.29-5a23.16,23.16,0,0,0-20.1,11.13A20.55,20.55,0,0,0,492,67.23v34Z" transform="translate(0 -8.66)"/><path class="cls-2" d="M109.06,146.05q31.37,0,48.56,17.3t17.2,49.48q0,32-17.2,49.37t-48.56,17.41H57.46V146.05Zm-1.42,111.3q19,0,28.64-11.44t9.61-33.08q0-21.66-9.61-33.09t-28.64-11.43H85.38v89Z" transform="translate(0 -8.66)"/><path class="cls-2" d="M230.88,146.05V279.61H203V146.05Z" transform="translate(0 -8.66)"/><path class="cls-2" d="M380,242.78a51.2,51.2,0,0,1-31.77,34.6,70.45,70.45,0,0,1-24.89,4.25q-19.83,0-34.3-8.3a55.56,55.56,0,0,1-22.26-23.67Q259,234.29,259,212.83T266.79,176a55.64,55.64,0,0,1,22.26-23.68Q303.52,144,323,144a78,78,0,0,1,24.89,3.74,48.73,48.73,0,0,1,18.92,11.43,45.92,45.92,0,0,1,11.43,19.43l-25.3,10.73q-3.43-12.15-10.52-17.31t-18.21-5.16A34.67,34.67,0,0,0,305,172.15q-8.21,5.26-12.65,15.49t-4.45,25.19q0,14.78,4.15,25.09t12.24,15.58q8.09,5.26,19.83,5.26a31,31,0,0,0,18.92-5.87q8-5.87,11.23-17.8Z" transform="translate(0 -8.66)"/><path class="cls-2" d="M431.81,146.05V279.61H403.89V146.05Zm73.46,54.84v22.46H417.85V200.89Zm13.35-54.84V279.61H490.7V146.05Z" transform="translate(0 -8.66)"/><path class="cls-1" d="M36.23,342.53l7.43-18h.49l7.42,18h-.46l-6.74-16.27L43.9,325l-.46,1.23-6.75,16.3Zm2.89-6.39v-.38h9.53v.38Z" transform="translate(0 -8.66)"/><path class="cls-1" d="M54.22,342.53V328.88h.44v3.55a5.84,5.84,0,0,1,1.64-2.72,4,4,0,0,1,2.84-1.1,3.64,3.64,0,0,1,1.2.17,2,2,0,0,1,.74.48l-.25.33a2.16,2.16,0,0,0-.63-.44,2.85,2.85,0,0,0-1.12-.16,3.55,3.55,0,0,0-2.26.8,5.47,5.47,0,0,0-1.59,2.09,6.62,6.62,0,0,0-.57,2.71v7.94Z" transform="translate(0 -8.66)"/><path class="cls-1" d="M68.06,328.61a6.61,6.61,0,0,1,2.46.43,4.9,4.9,0,0,1,1.84,1.27,5,5,0,0,1,1.08,2l-.38.19a4.42,4.42,0,0,0-1.75-2.62,5.45,5.45,0,0,0-3.25-.93,5.72,5.72,0,0,0-3,.8A5.57,5.57,0,0,0,63,332.1a7.84,7.84,0,0,0-.77,3.6,8,8,0,0,0,.75,3.59,5.35,5.35,0,0,0,5,3.13,6.1,6.1,0,0,0,2.39-.46,5.1,5.1,0,0,0,1.86-1.31,4,4,0,0,0,.94-2l.38.14a4.24,4.24,0,0,1-1,2.13,5.38,5.38,0,0,1-2,1.39,6.54,6.54,0,0,1-2.57.49,6.05,6.05,0,0,1-3.19-.84,5.9,5.9,0,0,1-2.2-2.45,9.29,9.29,0,0,1,0-7.61,6,6,0,0,1,2.24-2.45A6.21,6.21,0,0,1,68.06,328.61Z" transform="translate(0 -8.66)"/><path class="cls-1" d="M77,342.53V322.6h.44v9.88a5,5,0,0,1,2-2.8,6.18,6.18,0,0,1,3.69-1.1,5.71,5.71,0,0,1,2.71.59,4.11,4.11,0,0,1,1.75,1.68,5.35,5.35,0,0,1,.61,2.67v9h-.43v-8.92a4.5,4.5,0,0,0-1.27-3.4A4.81,4.81,0,0,0,83.05,329a5.61,5.61,0,0,0-2.85.74,5.53,5.53,0,0,0-2,1.95,5,5,0,0,0-.73,2.63v8.25Z" transform="translate(0 -8.66)"/><path class="cls-1" d="M92.91,326.2a.55.55,0,0,1-.6-.6.57.57,0,0,1,.16-.43.65.65,0,0,1,.88,0,.57.57,0,0,1,.16.43.55.55,0,0,1-.6.6Zm.22,2.68v13.65h-.44V328.88Z" transform="translate(0 -8.66)"/><path class="cls-1" d="M104.19,328.88v.38H95.75v-.38Zm-5.27-3.69v13.9a3.84,3.84,0,0,0,.68,2.48,2.58,2.58,0,0,0,2.16.85,3.51,3.51,0,0,0,1.31-.24,3.2,3.2,0,0,0,1.09-.77l.22.36a3.4,3.4,0,0,1-1.11.73,3.77,3.77,0,0,1-1.51.3,3.64,3.64,0,0,1-1.83-.42,2.54,2.54,0,0,1-1.1-1.25,5.37,5.37,0,0,1-.35-2V325.33Z" transform="translate(0 -8.66)"/><path class="cls-1" d="M112.16,342.8a6.31,6.31,0,0,1-3.24-.84,6,6,0,0,1-2.26-2.45,8.06,8.06,0,0,1-.84-3.81,8.32,8.32,0,0,1,.82-3.82,6.11,6.11,0,0,1,2.2-2.43,5.84,5.84,0,0,1,3.1-.84,5.55,5.55,0,0,1,3.08.82,5.23,5.23,0,0,1,2,2.33,8.53,8.53,0,0,1,.7,3.62v.19H106v-.41h11.47l-.19.16a7.32,7.32,0,0,0-1.41-4.57,4.72,4.72,0,0,0-4-1.76,5.38,5.38,0,0,0-2.88.8,5.57,5.57,0,0,0-2,2.31,8,8,0,0,0-.75,3.6,7.86,7.86,0,0,0,.76,3.61,5.63,5.63,0,0,0,2.11,2.31,5.81,5.81,0,0,0,3,.8,5.74,5.74,0,0,0,3-.82,5.16,5.16,0,0,0,2-2.24l.35.19a5.18,5.18,0,0,1-1.28,1.74,6.18,6.18,0,0,1-1.89,1.12A6.51,6.51,0,0,1,112.16,342.8Z" transform="translate(0 -8.66)"/><path class="cls-1" d="M121.77,322.6v19.93h-.44V322.6Zm9.94,6.28-6.12,5.68-.11.08-3.93,3.66v-.6l9.5-8.82Zm-6.15,5.4,6.28,8.25h-.54l-6.06-7.94Z" transform="translate(0 -8.66)"/><path class="cls-1" d="M140.91,328.88v.38h-8.44v-.38Zm-5.27-3.69v13.9a3.9,3.9,0,0,0,.68,2.48,2.6,2.6,0,0,0,2.16.85,3.51,3.51,0,0,0,1.31-.24,3.2,3.2,0,0,0,1.09-.77l.22.36a3.2,3.2,0,0,1-1.11.73,3.77,3.77,0,0,1-1.51.3,3.64,3.64,0,0,1-1.83-.42,2.52,2.52,0,0,1-1.09-1.25,5.17,5.17,0,0,1-.36-2V325.33Z" transform="translate(0 -8.66)"/><path class="cls-1" d="M149.7,322.6l-7.13,21.84h-.46l7.12-21.84Z" transform="translate(0 -8.66)"/><path class="cls-1" d="M153.22,326.2a.55.55,0,0,1-.6-.6.57.57,0,0,1,.16-.43.65.65,0,0,1,.88,0,.57.57,0,0,1,.16.43.55.55,0,0,1-.6.6Zm.22,2.68v13.65H153V328.88Z" transform="translate(0 -8.66)"/><path class="cls-1" d="M158.08,342.53V328.88h.44v3.82l0-.08a5.2,5.2,0,0,1,1.09-2.06,5.47,5.47,0,0,1,2-1.43,6.4,6.4,0,0,1,2.65-.52,5.83,5.83,0,0,1,2.71.58,4.17,4.17,0,0,1,1.75,1.68,5.39,5.39,0,0,1,.62,2.68v9h-.44V333.6a4.48,4.48,0,0,0-1.27-3.4,4.79,4.79,0,0,0-3.45-1.21,5.52,5.52,0,0,0-2.86.74,5.58,5.58,0,0,0-2,1.95,4.91,4.91,0,0,0-.74,2.63v8.22Z" transform="translate(0 -8.66)"/><path class="cls-1" d="M197.15,342.53v-18h6.34a6.33,6.33,0,0,1,4.12,1.15,4.15,4.15,0,0,1,1.39,3.41,4.34,4.34,0,0,1-.89,2.85,4.46,4.46,0,0,1-2.71,1.49v0a5.06,5.06,0,0,1,3,1.4,4.25,4.25,0,0,1,1.09,3.08,4.08,4.08,0,0,1-1.53,3.44,7.32,7.32,0,0,1-4.5,1.17Zm.44-9.28h5.9q5.07,0,5.07-4.15c0-2.8-1.69-4.21-5.07-4.21h-5.9Zm0,8.9h5.9a6.8,6.8,0,0,0,4.17-1.08,4.29,4.29,0,0,0,0-6.38,6.88,6.88,0,0,0-4.17-1.06h-5.9Z" transform="translate(0 -8.66)"/><path class="cls-1" d="M222.19,333.36a4.49,4.49,0,0,0-1.12-3.2,4.25,4.25,0,0,0-3.22-1.17,5.75,5.75,0,0,0-3,.75,4.51,4.51,0,0,0-1.9,2.47l-.35-.27a4.66,4.66,0,0,1,2-2.51,6.18,6.18,0,0,1,3.27-.82,5.42,5.42,0,0,1,2.59.56,3.8,3.8,0,0,1,1.63,1.62,5.51,5.51,0,0,1,.55,2.57v7c0,1.31.54,2,1.62,2a1.66,1.66,0,0,0,.92-.22l0,.38a2,2,0,0,1-1,.22,2.45,2.45,0,0,1-.87-.19,1.65,1.65,0,0,1-.78-.73,3.17,3.17,0,0,1-.31-1.59V339l.19-.16a3.92,3.92,0,0,1-1,2.22,5.46,5.46,0,0,1-2.08,1.33,7.26,7.26,0,0,1-2.47.43,6.39,6.39,0,0,1-2.35-.39,3.31,3.31,0,0,1-1.5-1.14,3.08,3.08,0,0,1-.52-1.8,3,3,0,0,1,1-2.4,6.22,6.22,0,0,1,2.91-1.23l5.92-1.15v.39l-5.62,1.09a6.09,6.09,0,0,0-2.86,1.16,2.86,2.86,0,0,0,.08,4.31,4.84,4.84,0,0,0,3,.78,6.85,6.85,0,0,0,1.73-.24,6.66,6.66,0,0,0,1.75-.78,4.41,4.41,0,0,0,1.35-1.37,3.74,3.74,0,0,0,.52-2Z" transform="translate(0 -8.66)"/><path class="cls-1" d="M232.13,342.8a5.46,5.46,0,0,1-2.58-.56,3.69,3.69,0,0,1-1.64-1.65,5.6,5.6,0,0,1-.56-2.62v-9.09h.44v9a4.52,4.52,0,0,0,1.16,3.33,4.38,4.38,0,0,0,3.26,1.17,5.7,5.7,0,0,0,2.54-.52,5.24,5.24,0,0,0,1.75-1.33,5.64,5.64,0,0,0,1-1.73,4.84,4.84,0,0,0,.33-1.66v-8.3h.44v13.65h-.44V338.9a5.06,5.06,0,0,1-2,2.78A6.09,6.09,0,0,1,232.13,342.8Z" transform="translate(0 -8.66)"/><path class="cls-1" d="M241.66,342.53v-.38l9-11.55,1.09-1.34H241.44v-.38H252.3v.38l-8.52,11-1.55,1.89h10.51v.38Z" transform="translate(0 -8.66)"/><path class="cls-1" d="M260.82,342.8a6.25,6.25,0,0,1-3.23-.84,5.92,5.92,0,0,1-2.27-2.45,8.06,8.06,0,0,1-.83-3.81,8.19,8.19,0,0,1,.82-3.82,6,6,0,0,1,2.19-2.43,5.86,5.86,0,0,1,3.1-.84,5.61,5.61,0,0,1,3.09.82,5.35,5.35,0,0,1,2,2.33,8.69,8.69,0,0,1,.69,3.62v.19H254.7v-.41h11.47l-.19.16a7.38,7.38,0,0,0-1.4-4.57,4.74,4.74,0,0,0-4-1.76,5.43,5.43,0,0,0-2.88.8,5.64,5.64,0,0,0-2.05,2.31,8,8,0,0,0-.75,3.6,7.86,7.86,0,0,0,.77,3.61,5.61,5.61,0,0,0,2.1,2.31,5.81,5.81,0,0,0,3,.8,5.74,5.74,0,0,0,3-.82,5.16,5.16,0,0,0,2-2.24l.35.19a5,5,0,0,1-1.28,1.74,6.13,6.13,0,0,1-1.88,1.12A6.56,6.56,0,0,1,260.82,342.8Z" transform="translate(0 -8.66)"/><path class="cls-1" d="M270.21,326.2a.56.56,0,0,1-.43-.16.6.6,0,0,1-.17-.44.58.58,0,0,1,.17-.43.56.56,0,0,1,.43-.17.6.6,0,0,1,.44.17.57.57,0,0,1,.16.43.55.55,0,0,1-.6.6Zm.22,2.68v13.65H270V328.88Z" transform="translate(0 -8.66)"/><path class="cls-1" d="M280.42,328.61a6.61,6.61,0,0,1,2.46.43,4.9,4.9,0,0,1,1.84,1.27,5,5,0,0,1,1.08,2l-.38.19a4.42,4.42,0,0,0-1.75-2.62,5.45,5.45,0,0,0-3.25-.93,5.72,5.72,0,0,0-3,.8,5.57,5.57,0,0,0-2.08,2.31,7.72,7.72,0,0,0-.77,3.6,8,8,0,0,0,.75,3.59,5.35,5.35,0,0,0,5,3.13,6.1,6.1,0,0,0,2.39-.46,5.1,5.1,0,0,0,1.86-1.31,4,4,0,0,0,.94-2l.38.14a4.24,4.24,0,0,1-1,2.13,5.38,5.38,0,0,1-2,1.39,6.57,6.57,0,0,1-2.57.49,6.05,6.05,0,0,1-3.19-.84,5.9,5.9,0,0,1-2.2-2.45,9.29,9.29,0,0,1,0-7.61,5.92,5.92,0,0,1,2.24-2.45A6.21,6.21,0,0,1,280.42,328.61Z" transform="translate(0 -8.66)"/><path class="cls-1" d="M289.38,342.53V322.6h.43v9.88a5.05,5.05,0,0,1,2-2.8,6.17,6.17,0,0,1,3.68-1.1,5.75,5.75,0,0,1,2.72.59,4.17,4.17,0,0,1,1.75,1.68,5.35,5.35,0,0,1,.61,2.67v9h-.43v-8.92a4.5,4.5,0,0,0-1.27-3.4,4.81,4.81,0,0,0-3.46-1.22,5.61,5.61,0,0,0-2.85.74,5.53,5.53,0,0,0-2,1.95,5,5,0,0,0-.74,2.63v8.25Z" transform="translate(0 -8.66)"/><path class="cls-1" d="M305.05,342.53V328.88h.44v3.82l0-.08a5.07,5.07,0,0,1,1.09-2.06,5.39,5.39,0,0,1,2-1.43,6.38,6.38,0,0,1,2.64-.52,5.84,5.84,0,0,1,2.72.58,4.17,4.17,0,0,1,1.75,1.68,5.39,5.39,0,0,1,.61,2.68v9h-.43V333.6a4.52,4.52,0,0,0-1.27-3.4,4.8,4.8,0,0,0-3.46-1.21,5.63,5.63,0,0,0-4.86,2.69,5,5,0,0,0-.73,2.63v8.22Z" transform="translate(0 -8.66)"/><path class="cls-1" d="M326.13,342.8a6.31,6.31,0,0,1-3.24-.84,6,6,0,0,1-2.27-2.45,9.23,9.23,0,0,1,0-7.63,6.11,6.11,0,0,1,2.2-2.43,5.84,5.84,0,0,1,3.1-.84,5.55,5.55,0,0,1,3.08.82,5.23,5.23,0,0,1,2,2.33,8.53,8.53,0,0,1,.7,3.62v.19H320v-.41h11.47l-.19.16a7.32,7.32,0,0,0-1.41-4.57,4.72,4.72,0,0,0-4-1.76,5.38,5.38,0,0,0-2.88.8,5.57,5.57,0,0,0-2,2.31,8,8,0,0,0-.75,3.6,7.86,7.86,0,0,0,.76,3.61,5.56,5.56,0,0,0,2.11,2.31,5.81,5.81,0,0,0,3,.8,5.74,5.74,0,0,0,3-.82,5.08,5.08,0,0,0,2-2.24l.36.19a5.18,5.18,0,0,1-1.28,1.74,6.18,6.18,0,0,1-1.89,1.12A6.51,6.51,0,0,1,326.13,342.8Z" transform="translate(0 -8.66)"/><path class="cls-1" d="M335.3,342.53V328.88h.44v3.55a5.82,5.82,0,0,1,1.63-2.72,4,4,0,0,1,2.84-1.1,3.56,3.56,0,0,1,1.2.17,1.9,1.9,0,0,1,.74.48l-.24.33a2.47,2.47,0,0,0-.63-.44,2.85,2.85,0,0,0-1.12-.16,3.59,3.59,0,0,0-2.27.8,5.55,5.55,0,0,0-1.58,2.09,6.62,6.62,0,0,0-.57,2.71v7.94Z" transform="translate(0 -8.66)"/><path class="cls-1" d="M349.88,322.6l-7.13,21.84h-.46l7.13-21.84Z" transform="translate(0 -8.66)"/><path class="cls-1" d="M353.4,326.2A.56.56,0,0,1,353,326a.6.6,0,0,1-.17-.44.58.58,0,0,1,.17-.43.56.56,0,0,1,.43-.17.6.6,0,0,1,.44.17.57.57,0,0,1,.16.43.55.55,0,0,1-.6.6Zm.22,2.68v13.65h-.44V328.88Z" transform="translate(0 -8.66)"/><path class="cls-1" d="M358.26,342.53V328.88h.44v3.82l0-.08a5.07,5.07,0,0,1,1.09-2.06,5.47,5.47,0,0,1,2-1.43,6.4,6.4,0,0,1,2.65-.52,5.83,5.83,0,0,1,2.71.58,4.17,4.17,0,0,1,1.75,1.68,5.39,5.39,0,0,1,.62,2.68v9H369V333.6a4.52,4.52,0,0,0-1.27-3.4A4.79,4.79,0,0,0,364.3,329a5.52,5.52,0,0,0-2.86.74,5.69,5.69,0,0,0-2,1.95,5,5,0,0,0-.73,2.63v8.22Z" transform="translate(0 -8.66)"/><path class="cls-1" d="M402.9,324.51a8.23,8.23,0,0,1,3.31.6,4.75,4.75,0,0,1,2.1,1.73,4.92,4.92,0,0,1,.73,2.72,4.84,4.84,0,0,1-.73,2.71,4.77,4.77,0,0,1-2.1,1.71,8.22,8.22,0,0,1-3.31.61h-5.13v7.94h-.44v-18Zm0,9.69a6.48,6.48,0,0,0,4.19-1.23,4.13,4.13,0,0,0,1.52-3.41,4.18,4.18,0,0,0-1.52-3.42,6.42,6.42,0,0,0-4.19-1.25h-5.13v9.31Z" transform="translate(0 -8.66)"/><path class="cls-1" d="M412.27,342.53V328.88h.43v3.55a5.92,5.92,0,0,1,1.64-2.72,4,4,0,0,1,2.84-1.1,3.64,3.64,0,0,1,1.2.17,1.9,1.9,0,0,1,.74.48l-.25.33a2.26,2.26,0,0,0-.62-.44,2.88,2.88,0,0,0-1.12-.16,3.57,3.57,0,0,0-2.27.8,5.55,5.55,0,0,0-1.58,2.09,6.47,6.47,0,0,0-.58,2.71v7.94Z" transform="translate(0 -8.66)"/><path class="cls-1" d="M430.09,333.36a4.44,4.44,0,0,0-1.12-3.2,4.24,4.24,0,0,0-3.22-1.17,5.8,5.8,0,0,0-3,.75,4.56,4.56,0,0,0-1.9,2.47l-.35-.27a4.72,4.72,0,0,1,2-2.51,6.14,6.14,0,0,1,3.26-.82,5.46,5.46,0,0,1,2.6.56,3.73,3.73,0,0,1,1.62,1.62,5.51,5.51,0,0,1,.56,2.57v7c0,1.31.54,2,1.61,2a1.73,1.73,0,0,0,.93-.22l0,.38a1.9,1.9,0,0,1-1,.22,2.45,2.45,0,0,1-.87-.19,1.65,1.65,0,0,1-.78-.73,3.15,3.15,0,0,1-.32-1.59V339l.19-.16a3.79,3.79,0,0,1-1,2.22,5.35,5.35,0,0,1-2.07,1.33,7.3,7.3,0,0,1-2.47.43,6.39,6.39,0,0,1-2.35-.39,3.2,3.2,0,0,1-1.5-1.14,3.35,3.35,0,0,1,.5-4.2,6.31,6.31,0,0,1,2.91-1.23l5.93-1.15v.39l-5.63,1.09a6.1,6.1,0,0,0-2.85,1.16,2.86,2.86,0,0,0,.08,4.31,4.81,4.81,0,0,0,3,.78,6.86,6.86,0,0,0,1.74-.24,6.45,6.45,0,0,0,1.74-.78,4.21,4.21,0,0,0,1.35-1.37,3.66,3.66,0,0,0,.52-2Z" transform="translate(0 -8.66)"/><path class="cls-1" d="M435.85,322.6v19.93h-.43V322.6Zm9.94,6.28-6.11,5.68-.11.08-3.93,3.66v-.6l9.5-8.82Zm-6.14,5.4,6.28,8.25h-.55l-6.06-7.94Z" transform="translate(0 -8.66)"/><path class="cls-1" d="M455,328.88v.38h-8.43v-.38Zm-5.27-3.69v13.9a3.84,3.84,0,0,0,.69,2.48,2.58,2.58,0,0,0,2.15.85,3.47,3.47,0,0,0,1.31-.24,3.24,3.24,0,0,0,1.1-.77l.21.36a3.25,3.25,0,0,1-1.1.73,3.82,3.82,0,0,1-1.52.3,3.67,3.67,0,0,1-1.83-.42,2.57,2.57,0,0,1-1.09-1.25,5.18,5.18,0,0,1-.35-2V325.33Z" transform="translate(0 -8.66)"/><path class="cls-1" d="M457.78,326.2a.55.55,0,0,1-.6-.6.57.57,0,0,1,.16-.43.6.6,0,0,1,.44-.17.58.58,0,0,1,.6.6.6.6,0,0,1-.17.44A.57.57,0,0,1,457.78,326.2Zm.22,2.68v13.65h-.44V328.88Z" transform="translate(0 -8.66)"/><path class="cls-1" d="M463.07,322.6v19.93h-.43V322.6Zm9.94,6.28-6.11,5.68-.11.08-3.93,3.66v-.6l9.5-8.82Zm-6.14,5.4,6.28,8.25h-.55l-6.06-7.94Z" transform="translate(0 -8.66)"/><path class="cls-1" d="M484.59,333.36a4.49,4.49,0,0,0-1.12-3.2,4.25,4.25,0,0,0-3.22-1.17,5.75,5.75,0,0,0-3,.75,4.51,4.51,0,0,0-1.9,2.47l-.35-.27a4.66,4.66,0,0,1,2-2.51,6.18,6.18,0,0,1,3.27-.82,5.42,5.42,0,0,1,2.59.56,3.8,3.8,0,0,1,1.63,1.62,5.51,5.51,0,0,1,.56,2.57v7c0,1.31.53,2,1.61,2a1.66,1.66,0,0,0,.92-.22l0,.38a2,2,0,0,1-1,.22,2.45,2.45,0,0,1-.87-.19,1.65,1.65,0,0,1-.78-.73,3.17,3.17,0,0,1-.31-1.59V339l.19-.16a3.92,3.92,0,0,1-1,2.22,5.46,5.46,0,0,1-2.08,1.33,7.26,7.26,0,0,1-2.47.43,6.39,6.39,0,0,1-2.35-.39,3.31,3.31,0,0,1-1.5-1.14,3.08,3.08,0,0,1-.52-1.8,3,3,0,0,1,1-2.4,6.22,6.22,0,0,1,2.91-1.23l5.92-1.15v.39l-5.62,1.09a6.09,6.09,0,0,0-2.86,1.16,2.86,2.86,0,0,0,.08,4.31,4.84,4.84,0,0,0,3,.78,6.85,6.85,0,0,0,1.73-.24,6.66,6.66,0,0,0,1.75-.78,4.41,4.41,0,0,0,1.35-1.37,3.74,3.74,0,0,0,.52-2Z" transform="translate(0 -8.66)"/><path class="cls-1" d="M489.91,342.53V328.88h.44v3.82l0-.08a5.2,5.2,0,0,1,1.09-2.06,5.47,5.47,0,0,1,2-1.43,6.43,6.43,0,0,1,2.65-.52,5.83,5.83,0,0,1,2.71.58,4.17,4.17,0,0,1,1.75,1.68,5.39,5.39,0,0,1,.62,2.68v9h-.44V333.6a4.48,4.48,0,0,0-1.27-3.4A4.79,4.79,0,0,0,496,329a5.52,5.52,0,0,0-2.86.74,5.58,5.58,0,0,0-2,1.95,4.91,4.91,0,0,0-.74,2.63v8.22Z" transform="translate(0 -8.66)"/><path class="cls-1" d="M511.45,328.88v.38H503v-.38Zm-5.27-3.69v13.9a3.84,3.84,0,0,0,.69,2.48,2.58,2.58,0,0,0,2.15.85,3.47,3.47,0,0,0,1.31-.24,3.24,3.24,0,0,0,1.1-.77l.22.36a3.4,3.4,0,0,1-1.11.73,3.82,3.82,0,0,1-1.52.3,3.63,3.63,0,0,1-1.82-.42,2.54,2.54,0,0,1-1.1-1.25,5.37,5.37,0,0,1-.35-2V325.33Z" transform="translate(0 -8.66)"/><path class="cls-1" d="M520.25,322.6l-7.13,21.84h-.46l7.12-21.84Z" transform="translate(0 -8.66)"/><path class="cls-1" d="M523.77,326.2a.55.55,0,0,1-.6-.6.57.57,0,0,1,.16-.43.6.6,0,0,1,.44-.17.56.56,0,0,1,.43.17.58.58,0,0,1,.17.43.6.6,0,0,1-.17.44A.56.56,0,0,1,523.77,326.2Zm.22,2.68v13.65h-.44V328.88Z" transform="translate(0 -8.66)"/><path class="cls-1" d="M528.63,342.53V328.88h.43v3.82l0-.08a5.07,5.07,0,0,1,1.09-2.06,5.39,5.39,0,0,1,2-1.43,6.38,6.38,0,0,1,2.64-.52,5.87,5.87,0,0,1,2.72.58,4.23,4.23,0,0,1,1.75,1.68,5.39,5.39,0,0,1,.61,2.68v9h-.43V333.6a4.52,4.52,0,0,0-1.27-3.4,4.8,4.8,0,0,0-3.46-1.21,5.63,5.63,0,0,0-4.86,2.69,5,5,0,0,0-.74,2.63v8.22Z" transform="translate(0 -8.66)"/><line class="cls-3" x1="0.5" y1="35.84" x2="0.5" y2="0.06"/><line class="cls-3" x1="35.97" y1="0.5" y2="0.5"/><line class="cls-3" x1="577.49" y1="338.68" x2="577.49" y2="376.33"/><line class="cls-3" x1="540.36" y1="376.77" x2="577.99" y2="376.77"/></g></g></svg>