<svg xmlns="http://www.w3.org/2000/svg" viewBox="0 0 584.71 439.89"><defs><style>.cls-1{fill:#1d1d1b;}.cls-2{fill:#f6f6f6;}.cls-3{fill:none;stroke:#e94e1b;stroke-miterlimit:10;}</style></defs><g id="Ebene_2" data-name="Ebene 2"><g id="Ebene_1-2" data-name="Ebene 1"><rect class="cls-1" x="37.68" y="126.53" width="510.48" height="195"/><path class="cls-1" d="M139.19,37.77h1.95L122.14,95h-1.83L99.93,40.4,79.45,95H77.62l-19-57.23h1.94l18,54.6L98.9,37.77h1.95l20.37,54.6Z" transform="translate(0 -0.23)"/><path class="cls-1" d="M155.1,26.55A2.36,2.36,0,0,1,152.58,24a2.44,2.44,0,0,1,.69-1.83,2.47,2.47,0,0,1,1.83-.69A2.37,2.37,0,0,1,157.62,24a2.47,2.47,0,0,1-.69,1.83A2.44,2.44,0,0,1,155.1,26.55ZM156,37.77V95h-1.83V37.77Z" transform="translate(0 -0.23)"/><path class="cls-1" d="M175.48,95V37.77h1.83V52.65a24.68,24.68,0,0,1,6.86-11.39,16.74,16.74,0,0,1,11.91-4.63,14.4,14.4,0,0,1,5,.74,8,8,0,0,1,3.09,2l-1,1.38a8.94,8.94,0,0,0-2.63-1.83,11.85,11.85,0,0,0-4.69-.69,14.86,14.86,0,0,0-9.5,3.38,23,23,0,0,0-6.64,8.75,27.54,27.54,0,0,0-2.4,11.33V95Z" transform="translate(0 -0.23)"/><path class="cls-1" d="M269.56,96.15a25.72,25.72,0,0,1-10.76-2.24,21.89,21.89,0,0,1-8.3-6.52A25.69,25.69,0,0,1,245.75,77l.12-.23V95H244V11.45h1.84V55.74l-.12-.23q2.17-9,8.64-14a24.35,24.35,0,0,1,15.17-4.92,25.71,25.71,0,0,1,13.68,3.54,23.79,23.79,0,0,1,9,10.19,36.57,36.57,0,0,1,3.21,16,36.59,36.59,0,0,1-3.21,16,23.67,23.67,0,0,1-9,10.25A25.71,25.71,0,0,1,269.56,96.15Zm-.34-1.61q11.1,0,17.74-7.44t6.64-20.71q0-13.28-6.64-20.72t-17.74-7.44a21.6,21.6,0,0,0-12,3.43,23.35,23.35,0,0,0-8.35,9.73,34.31,34.31,0,0,0-3,15A33.76,33.76,0,0,0,249,81.32a23.72,23.72,0,0,0,8.35,9.79A21.31,21.31,0,0,0,269.22,94.54Z" transform="translate(0 -0.23)"/><path class="cls-1" d="M311.91,26.55a2.44,2.44,0,0,1-1.83-.68,2.47,2.47,0,0,1-.69-1.83,2.37,2.37,0,0,1,2.52-2.52,2.47,2.47,0,0,1,1.83.69,2.44,2.44,0,0,1,.69,1.83,2.36,2.36,0,0,1-2.52,2.51Zm.91,11.22V95H311V37.77Z" transform="translate(0 -0.23)"/><path class="cls-1" d="M333.65,11.45v71.3c0,4.2.69,7.21,2.06,9s3.47,2.74,6.3,2.74a16.92,16.92,0,0,0,3.89-.34,13.38,13.38,0,0,0,2.75-1v1.6a13.89,13.89,0,0,1-2.75,1,16.68,16.68,0,0,1-3.89.4q-5,0-7.61-3.21t-2.58-10.19V11.45Z" transform="translate(0 -0.23)"/><path class="cls-1" d="M380.7,96.15A26.38,26.38,0,0,1,367,92.6a23.59,23.59,0,0,1-9.21-10.25,36,36,0,0,1-3.26-16,36,36,0,0,1,3.26-16A23.71,23.71,0,0,1,367,40.17a26.37,26.37,0,0,1,13.74-3.54,23.57,23.57,0,0,1,15.05,4.92q6.24,4.92,8.41,14l-.11.23V11.45h1.83V95h-1.83V76.8l.11.23a24.83,24.83,0,0,1-4.58,10.36,21.63,21.63,0,0,1-8.12,6.52A25.27,25.27,0,0,1,380.7,96.15Zm.34-1.61a21,21,0,0,0,11.85-3.43,23.09,23.09,0,0,0,8.18-9.79,34.92,34.92,0,0,0,3-14.93,34.9,34.9,0,0,0-3-15,23.33,23.33,0,0,0-8.13-9.73A20.93,20.93,0,0,0,381,38.23q-11.1,0-17.91,7.44t-6.81,20.72q0,13.27,6.81,20.71T381,94.54Z" transform="translate(0 -0.23)"/><path class="cls-1" d="M448,96.15a26.25,26.25,0,0,1-13.57-3.55,25,25,0,0,1-9.5-10.25,34.17,34.17,0,0,1-3.49-16,34.53,34.53,0,0,1,3.44-16,25.3,25.3,0,0,1,9.21-10.19,24.36,24.36,0,0,1,13-3.54A23.55,23.55,0,0,1,460,40.06a22.3,22.3,0,0,1,8.29,9.79A36,36,0,0,1,471.23,65v.8H422.36V64.1h48.07l-.8.68q-.12-11.78-5.89-19.17t-16.66-7.38A22.43,22.43,0,0,0,435,41.61a23.31,23.31,0,0,0-8.59,9.67,33.41,33.41,0,0,0-3.15,15.11,33,33,0,0,0,3.21,15.11,23.31,23.31,0,0,0,8.81,9.67,25.44,25.44,0,0,0,25.41-.06,21.7,21.7,0,0,0,8.59-9.39l1.48.81a21.61,21.61,0,0,1-5.37,7.26,25,25,0,0,1-7.9,4.7A27.23,27.23,0,0,1,448,96.15Z" transform="translate(0 -0.23)"/><path class="cls-1" d="M486.46,95V37.77h1.83v16l-.12-.35a21.39,21.39,0,0,1,4.58-8.64,23,23,0,0,1,8.24-6,27.19,27.19,0,0,1,11.11-2.17,24.45,24.45,0,0,1,11.38,2.46,17.41,17.41,0,0,1,7.33,7,22.53,22.53,0,0,1,2.57,11.21V95h-1.83V57.57q0-9.15-5.32-14.25t-14.48-5.09A23.48,23.48,0,0,0,491.38,49.5a20.93,20.93,0,0,0-3.09,11V95Z" transform="translate(0 -0.23)"/><path class="cls-1" d="M415.92,364q0-8.48-4.69-13.39t-13.51-4.92a24.23,24.23,0,0,0-12.53,3.14q-5.32,3.15-8,10.36L375.75,358A19.89,19.89,0,0,1,384,347.5a25.92,25.92,0,0,1,13.68-3.44,23.23,23.23,0,0,1,10.88,2.35,16,16,0,0,1,6.81,6.81A22.92,22.92,0,0,1,417.75,364v29.53q0,8.24,6.76,8.24a7,7,0,0,0,3.89-.91l-.12,1.6a8.24,8.24,0,0,1-4.12.91,9.55,9.55,0,0,1-3.66-.8,6.8,6.8,0,0,1-3.26-3q-1.32-2.24-1.32-6.7v-5.26l.8-.69a16.32,16.32,0,0,1-4.4,9.33,22.63,22.63,0,0,1-8.7,5.55,30.45,30.45,0,0,1-10.36,1.83,26.27,26.27,0,0,1-9.85-1.66,13.68,13.68,0,0,1-6.29-4.75,12.79,12.79,0,0,1-2.18-7.55,12.55,12.55,0,0,1,4.3-10.07q4.29-3.66,12.19-5.15l24.83-4.81v1.6l-23.57,4.58c-5.35,1-9.33,2.61-12,4.86a11,11,0,0,0-3.94,8.76c0,4.05,1.43,7.15,4.29,9.33s7,3.26,12.42,3.26a27.93,27.93,0,0,0,7.27-1,26.24,26.24,0,0,0,7.32-3.26,18.11,18.11,0,0,0,5.67-5.72,15.72,15.72,0,0,0,2.17-8.42Z" transform="translate(0 -0.23)"/><path class="cls-1" d="M457.58,403.58a23.24,23.24,0,0,1-10.81-2.34,15.66,15.66,0,0,1-6.87-6.93,23.87,23.87,0,0,1-2.35-11V345.21h1.84v37.88q0,9,4.86,14T457.93,402a24,24,0,0,0,10.64-2.17,21.79,21.79,0,0,0,7.33-5.61,24.29,24.29,0,0,0,4.23-7.21,20.5,20.5,0,0,0,1.38-7V345.21h1.83v57.23h-1.83V387.22a21.42,21.42,0,0,1-8.36,11.67A25.61,25.61,0,0,1,457.58,403.58Z" transform="translate(0 -0.23)"/><path class="cls-1" d="M520.54,403.58a31.23,31.23,0,0,1-15.28-3.49,15.35,15.35,0,0,1-8-10.36l1.72-.8a14.54,14.54,0,0,0,7.32,9.73q5.84,3.33,14.54,3.32,9.15,0,14.48-3.72a11.62,11.62,0,0,0,5.32-10,10.29,10.29,0,0,0-2.8-7.33q-2.8-3-10.36-4.58l-13-2.86q-7.91-1.71-11.27-5.32a12,12,0,0,1-3.38-8.53,12.45,12.45,0,0,1,2.75-7.95,18.73,18.73,0,0,1,7.55-5.55A27.22,27.22,0,0,1,521,344.06q8.82,0,14.2,3.44t7,10.87l-1.6.92q-1.5-7.1-6.47-10.36T521,345.67a26.17,26.17,0,0,0-9.95,1.77,17.22,17.22,0,0,0-6.87,4.81,10.53,10.53,0,0,0-2.52,6.92,11,11,0,0,0,2.92,7.61q2.91,3.27,10,4.87l13.28,3q8.13,1.83,11.39,5.15a11.54,11.54,0,0,1,3.26,8.47,13,13,0,0,1-2.69,8.18,16.59,16.59,0,0,1-7.61,5.32A33.48,33.48,0,0,1,520.54,403.58Z" transform="translate(0 -0.23)"/><path class="cls-2" d="M111.53,158.93q31.78,0,49.22,17.53t17.43,50.14q0,32.4-17.43,50t-49.22,17.63H59.24V158.93Zm-1.44,112.79q19.28,0,29-11.59t9.74-33.53q0-21.94-9.74-33.53t-29-11.59H87.54v90.24Z" transform="translate(0 -0.23)"/><path class="cls-2" d="M235,158.93V294.27h-28.3V158.93Z" transform="translate(0 -0.23)"/><path class="cls-2" d="M386.12,257A51.89,51.89,0,0,1,353.92,292a71.33,71.33,0,0,1-25.22,4.31q-20.1,0-34.76-8.41a56.24,56.24,0,0,1-22.56-24q-7.89-15.57-7.89-37.32t7.89-37.32a56.3,56.3,0,0,1,22.56-24q14.65-8.4,34.35-8.4a78.76,78.76,0,0,1,25.22,3.79,49.17,49.17,0,0,1,19.18,11.59,46.43,46.43,0,0,1,11.58,19.68l-25.63,10.87q-3.5-12.3-10.66-17.53t-18.46-5.23a35.14,35.14,0,0,0-19.38,5.33q-8.31,5.34-12.82,15.69t-4.51,25.53q0,15,4.21,25.43t12.4,15.79q8.2,5.34,20.1,5.33a31.53,31.53,0,0,0,19.17-5.94q8.1-6,11.39-18Z" transform="translate(0 -0.23)"/><path class="cls-2" d="M438.62,158.93V294.27h-28.3V158.93Zm74.44,55.57v22.76H424.47V214.5Zm13.53-55.57V294.27h-28.3V158.93Z" transform="translate(0 -0.23)"/><line class="cls-3" x1="0.5" y1="36.32" x2="0.5" y2="0.06"/><line class="cls-3" x1="36.44" y1="0.5" x2="0.02" y2="0.5"/><line class="cls-3" x1="584.21" y1="403.58" x2="584.21" y2="439.88"/><line class="cls-3" x1="548.27" y1="439.39" x2="584.71" y2="439.39"/></g></g></svg>