<svg xmlns="http://www.w3.org/2000/svg" xmlns:xlink="http://www.w3.org/1999/xlink" viewBox="0 0 342.88 324.62"><defs><style>.cls-1{fill:none;}.cls-2{clip-path:url(#clip-path);}.cls-3{clip-path:url(#clip-path-2);}.cls-4{font-size:28px;}.cls-12,.cls-4{fill:#1d1d1b;}.cls-13,.cls-20,.cls-4{font-family:DaxlineOT;}.cls-5{letter-spacing:-0.08em;}.cls-6{letter-spacing:0.01em;}.cls-7{letter-spacing:-0.02em;}.cls-8{letter-spacing:-0.01em;}.cls-9{letter-spacing:-0.01em;}.cls-10{clip-path:url(#clip-path-3);}.cls-11,.cls-13,.cls-20{fill:#a8a8a7;}.cls-13,.cls-20{font-size:12px;}.cls-13{letter-spacing:-0.01em;}.cls-14{letter-spacing:0em;}.cls-15{letter-spacing:0em;}.cls-16{letter-spacing:0em;}.cls-17{letter-spacing:-0.01em;}.cls-18{letter-spacing:0.16em;}.cls-19{letter-spacing:0em;}.cls-21{letter-spacing:-0.07em;}.cls-22{letter-spacing:-0.01em;}.cls-23{letter-spacing:0em;}.cls-24{letter-spacing:-0.01em;}.cls-25{letter-spacing:-0.05em;}.cls-26{letter-spacing:0em;}.cls-27{letter-spacing:-0.02em;}.cls-28{letter-spacing:-0.01em;}.cls-29{letter-spacing:0.16em;}.cls-30{letter-spacing:-0.01em;}.cls-31{letter-spacing:0.16em;}.cls-32{letter-spacing:0em;}.cls-33{letter-spacing:0.16em;}</style><clipPath id="clip-path" transform="translate(62.65 -5.41)"><rect class="cls-1" width="219" height="221"/></clipPath><clipPath id="clip-path-2" transform="translate(62.65 -5.41)"><rect class="cls-1" x="-102.6" y="-84.6" width="425.2" height="425.2"/></clipPath><clipPath id="clip-path-3" transform="translate(62.65 -5.41)"><rect class="cls-1" x="4.42" y="5.41" width="211.17" height="211.17"/></clipPath></defs><g id="Ebene_2" data-name="Ebene 2"><g id="Ebene_1-2" data-name="Ebene 1"><g class="cls-2"><g class="cls-3"><text class="cls-4" transform="translate(0 300.48)">ww<tspan class="cls-5" x="40.44" y="0">w</tspan><tspan x="58.31" y="0">.carus</tspan><tspan class="cls-6" x="134.56" y="0">o</tspan><tspan x="150.52" y="0">-a</tspan><tspan class="cls-7" x="175.42" y="0">r</tspan><tspan x="184.27" y="0">chi</tspan><tspan class="cls-8" x="220.06" y="0">t</tspan><tspan x="227.56" y="0">ek</tspan><tspan class="cls-9" x="257.13" y="0">t</tspan><tspan x="264.66" y="0">en.de</tspan></text><g class="cls-10"><path class="cls-11" d="M110,12.36A98.64,98.64,0,1,1,11.37,111,98.63,98.63,0,0,1,110,12.36m0-6.95A105.59,105.59,0,1,0,215.59,111,105.7,105.7,0,0,0,110,5.41" transform="translate(62.65 -5.41)"/><path class="cls-11" d="M109,61A65.27,65.27,0,0,0,81.65,67.5l2.28,5.44c5.78-3.17,16.47-6,25.06-6,14.89,0,26.46,4.91,26.46,22.61v9.11h0v5.79h0V149l0,0v6.31a35.41,35.41,0,0,0,6.7-2.83V89.58c0-21-14.55-28.57-33.12-28.57" transform="translate(62.65 -5.41)"/><path class="cls-12" d="M123.23,152.11a79.82,79.82,0,0,1-11.44.9c-20,0-29.27-8.75-29.27-21.72,0-20.17,20.11-24.36,40.71-26V99.52c-24.53,2.11-47.36,7.72-47.36,31.77,0,16.65,12.26,27.68,35.92,27.68a80.17,80.17,0,0,0,11.44-1Z" transform="translate(62.65 -5.41)"/><path class="cls-12" d="M128.3,151.26a82.5,82.5,0,0,1-16.59,1.81c-20,0-29.33-8.77-29.33-21.77,0-21.88,23.62-25,45.92-26.43V99.08c-26.42,1.81-52.58,6.44-52.58,32.22C75.72,148,88,159,111.71,159a82.84,82.84,0,0,0,16.59-1.79Z" transform="translate(62.65 -5.41)"/></g><text class="cls-13" transform="translate(1.86 319.66) scale(1.04 1)">R<tspan class="cls-14" x="8.51" y="0">e</tspan><tspan class="cls-15" x="15.22" y="0">is</tspan><tspan class="cls-14" x="23.98" y="0">e</tspan><tspan class="cls-15" x="30.69" y="0">n</tspan><tspan class="cls-16" x="37.41" y="0">g</tspan><tspan class="cls-15" x="44.12" y="0">a</tspan><tspan class="cls-17" x="50.85" y="0">s</tspan><tspan class="cls-15" x="56.79" y="0">se</tspan><tspan class="cls-18" x="69.55" y="0"> </tspan><tspan class="cls-16" x="74.8" y="0">7</tspan><tspan class="cls-19" x="81.51" y="0"> </tspan></text><text class="cls-20" transform="translate(88.13 320.66) scale(1.04 1)">·</text><text class="cls-20" transform="translate(91.32 319.66) scale(1.04 1)"><tspan class="cls-18"> </tspan><tspan class="cls-16" x="5.24" y="0">7</tspan><tspan class="cls-15" x="11.95" y="0">7</tspan><tspan class="cls-21" x="18.67" y="0">7</tspan><tspan class="cls-22" x="24.57" y="0">4</tspan><tspan class="cls-14" x="31.12" y="0">9</tspan><tspan class="cls-18" x="37.83" y="0"> </tspan><tspan class="cls-23" x="43.07" y="0">Hohbe</tspan><tspan class="cls-24" x="78.67" y="0">r</tspan><tspan class="cls-14" x="82.51" y="0">g</tspan><tspan x="89.22" y="0"> </tspan></text><text class="cls-20" transform="translate(188.34 320.66) scale(1.04 1)">·</text><text class="cls-20" transform="translate(191.53 319.66) scale(1.04 1)"> </text><text class="cls-20" transform="translate(196.9 319.66) scale(1.04 1)"><tspan class="cls-25">T</tspan><tspan class="cls-14" x="6.78" y="0">e</tspan><tspan class="cls-15" x="13.49" y="0">l</tspan><tspan class="cls-26" x="16.2" y="0">e</tspan><tspan class="cls-27" x="22.85" y="0">f</tspan><tspan class="cls-16" x="26.01" y="0">o</tspan><tspan class="cls-15" x="32.72" y="0">n</tspan><tspan class="cls-18" x="39.44" y="0"> </tspan><tspan class="cls-28" x="44.68" y="0">0</tspan><tspan class="cls-16" x="51.27" y="0">7</tspan><tspan class="cls-23" x="57.98" y="0">8</tspan><tspan class="cls-14" x="64.7" y="0">0</tspan><tspan class="cls-15" x="71.41" y="0">8</tspan><tspan class="cls-29" x="78.13" y="0"> </tspan><tspan class="cls-30" x="83.37" y="0">9</tspan><tspan class="cls-15" x="89.94" y="0">43</tspan><tspan class="cls-31" x="103.38" y="0"> </tspan><tspan class="cls-15" x="108.63" y="0">9</tspan><tspan class="cls-32" x="115.35" y="0">8</tspan><tspan class="cls-33" x="122.06" y="0"> </tspan><tspan class="cls-17" x="127.31" y="0">8</tspan><tspan x="133.93" y="0">1</tspan></text></g></g></g></g></svg>