<svg xmlns="http://www.w3.org/2000/svg" viewBox="0 0 577.99 359.27"><defs><style>.cls-1{fill:#1d1d1b;}.cls-2{fill:#f6f6f6;}.cls-3{fill:none;stroke:#e94e1b;stroke-miterlimit:10;}</style></defs><g id="Ebene_2" data-name="Ebene 2"><g id="Ebene_1-2" data-name="Ebene 1"><rect class="cls-1" x="36.19" y="104.08" width="503.71" height="192.42"/><path class="cls-1" d="M125.17,44.76h1.92l-18.75,56.47h-1.8L86.43,47.36,66.22,101.23H64.41L45.66,44.76h1.92L65.31,98.63,85.42,44.76h1.92l20.1,53.87Z" transform="translate(0 -8.66)"/><path class="cls-1" d="M140.87,33.69a2.46,2.46,0,0,1-1.81-.68,2.77,2.77,0,0,1,0-3.61,2.48,2.48,0,0,1,4.29,1.81,2.43,2.43,0,0,1-.67,1.8A2.46,2.46,0,0,1,140.87,33.69Zm.9,11.07v56.47H140V44.76Z" transform="translate(0 -8.66)"/><path class="cls-1" d="M161,101.23V44.76h1.81V59.44a24.42,24.42,0,0,1,6.78-11.24,16.48,16.48,0,0,1,11.74-4.57,14.1,14.1,0,0,1,5,.73,7.77,7.77,0,0,1,3,2l-1,1.36a8.83,8.83,0,0,0-2.59-1.81,11.79,11.79,0,0,0-4.63-.68,14.67,14.67,0,0,0-9.38,3.33,22.66,22.66,0,0,0-6.55,8.64,27.14,27.14,0,0,0-2.37,11.18v32.87Z" transform="translate(0 -8.66)"/><path class="cls-1" d="M299.33,44.76h1.92L282.5,101.23h-1.81l-20.1-53.87-20.22,53.87h-1.81L219.82,44.76h1.92l17.73,53.87,20.1-53.87h1.92l20.1,53.87Z" transform="translate(0 -8.66)"/><path class="cls-1" d="M335.69,43.63a26.55,26.55,0,0,1,13.73,3.5,23.92,23.92,0,0,1,9.26,10.11A34.63,34.63,0,0,1,362,73a34.67,34.67,0,0,1-3.33,15.76,23.92,23.92,0,0,1-9.26,10.11,28.66,28.66,0,0,1-27.45,0,24.31,24.31,0,0,1-9.32-10.11A34.28,34.28,0,0,1,309.27,73a34.24,34.24,0,0,1,3.38-15.75A24.31,24.31,0,0,1,322,47.13,26.52,26.52,0,0,1,335.69,43.63Zm0,1.58a24.26,24.26,0,0,0-12.76,3.33,23,23,0,0,0-8.69,9.55A32.48,32.48,0,0,0,311.07,73a32.6,32.6,0,0,0,3.17,14.86,22.87,22.87,0,0,0,8.69,9.6,26.13,26.13,0,0,0,25.53,0,22.57,22.57,0,0,0,8.64-9.6A33.13,33.13,0,0,0,360.2,73a33,33,0,0,0-3.1-14.9,22.67,22.67,0,0,0-8.64-9.55A24.29,24.29,0,0,0,335.69,45.21Z" transform="translate(0 -8.66)"/><path class="cls-1" d="M378.72,18.78V89.14c0,4.15.68,7.12,2,8.93s3.42,2.71,6.21,2.71a17.07,17.07,0,0,0,3.84-.34,13.61,13.61,0,0,0,2.71-1V101a12.91,12.91,0,0,1-2.71,1,15.78,15.78,0,0,1-3.84.4c-3.32,0-5.82-1.06-7.51-3.16s-2.54-5.46-2.54-10.06V18.78Z" transform="translate(0 -8.66)"/><path class="cls-1" d="M405.49,18.78V89.14c0,4.15.68,7.12,2,8.93s3.43,2.71,6.22,2.71a17.13,17.13,0,0,0,3.84-.34,13.84,13.84,0,0,0,2.71-1V101a13.11,13.11,0,0,1-2.71,1,15.78,15.78,0,0,1-3.84.4c-3.32,0-5.82-1.06-7.51-3.16s-2.55-5.46-2.55-10.06V18.78Z" transform="translate(0 -8.66)"/><path class="cls-1" d="M452.25,102.36a25.84,25.84,0,0,1-13.38-3.5,24.64,24.64,0,0,1-9.38-10.11A33.78,33.78,0,0,1,426.05,73a34.05,34.05,0,0,1,3.39-15.81,25,25,0,0,1,9.09-10,24,24,0,0,1,12.82-3.5A23.21,23.21,0,0,1,464.11,47a22.06,22.06,0,0,1,8.19,9.65,35.63,35.63,0,0,1,2.88,15v.79H427V70.74h47.44l-.79.67q-.12-11.62-5.82-18.91t-16.43-7.29a22.16,22.16,0,0,0-11.92,3.33A23.1,23.1,0,0,0,431,58.09a33,33,0,0,0-3.1,14.9A32.5,32.5,0,0,0,431,87.9a23.1,23.1,0,0,0,8.69,9.55,25.08,25.08,0,0,0,25.08-.06,21.46,21.46,0,0,0,8.47-9.26l1.47.79a21.23,21.23,0,0,1-5.31,7.17,24.55,24.55,0,0,1-7.79,4.63A26.78,26.78,0,0,1,452.25,102.36Z" transform="translate(0 -8.66)"/><path class="cls-1" d="M490.2,101.23V44.76H492V60.57l-.12-.34a21.16,21.16,0,0,1,4.52-8.53,22.68,22.68,0,0,1,8.13-5.92,26.86,26.86,0,0,1,11-2.15,24.19,24.19,0,0,1,11.24,2.43A17.15,17.15,0,0,1,534,53a22.26,22.26,0,0,1,2.55,11.07v37.16H534.7V64.3q0-9-5.25-14.06t-14.29-5a23.16,23.16,0,0,0-20.1,11.13A20.55,20.55,0,0,0,492,67.23v34Z" transform="translate(0 -8.66)"/><path class="cls-2" d="M109.06,146.05q31.37,0,48.56,17.3t17.2,49.48q0,32-17.2,49.37t-48.56,17.41H57.46V146.05Zm-1.42,111.3q19,0,28.64-11.44t9.61-33.08q0-21.66-9.61-33.09t-28.64-11.43H85.38v89Z" transform="translate(0 -8.66)"/><path class="cls-2" d="M230.88,146.05V279.61H203V146.05Z" transform="translate(0 -8.66)"/><path class="cls-2" d="M380,242.78a51.2,51.2,0,0,1-31.77,34.6,70.45,70.45,0,0,1-24.89,4.25q-19.83,0-34.3-8.3a55.56,55.56,0,0,1-22.26-23.67Q259,234.29,259,212.83T266.79,176a55.64,55.64,0,0,1,22.26-23.68Q303.52,144,323,144a78,78,0,0,1,24.89,3.74,48.73,48.73,0,0,1,18.92,11.43,45.92,45.92,0,0,1,11.43,19.43l-25.3,10.73q-3.43-12.15-10.52-17.31t-18.21-5.16A34.67,34.67,0,0,0,305,172.15q-8.21,5.26-12.65,15.49t-4.45,25.19q0,14.78,4.15,25.09t12.24,15.58q8.09,5.26,19.83,5.26a31,31,0,0,0,18.92-5.87q8-5.87,11.23-17.8Z" transform="translate(0 -8.66)"/><path class="cls-2" d="M431.81,146.05V279.61H403.89V146.05Zm73.46,54.84v22.46H417.85V200.89Zm13.35-54.84V279.61H490.7V146.05Z" transform="translate(0 -8.66)"/><line class="cls-3" x1="0.5" y1="35.84" x2="0.5" y2="0.06"/><line class="cls-3" x1="35.97" y1="0.5" y2="0.5"/><line class="cls-3" x1="577.49" y1="320.68" x2="577.49" y2="358.33"/><line class="cls-3" x1="540.36" y1="358.77" x2="577.99" y2="358.77"/></g></g></svg>